<svg xmlns="http://www.w3.org/2000/svg" width="157" height="165" viewBox="0 0 157 165">
  <path d="M 91.40 152.30 C 90.60 152.50 89.22 152.47 87.99 152.50 C 86.76 152.53 85.33 152.50 84.00 152.50 C 82.67 152.50 81.33 152.50 80.00 152.50 C 78.67 152.50 77.33 152.50 76.00 152.50 C 74.67 152.50 73.33 152.50 72.00 152.50 C 70.67 152.50 69.27 152.56 68.01 152.49 C 66.74 152.42 65.30 152.53 64.42 152.08 C 63.53 151.63 62.99 150.79 62.70 149.80 C 62.41 148.82 62.56 147.33 62.67 146.16 C 62.77 145.00 63.19 144.02 63.33 142.83 C 63.48 141.64 63.41 140.25 63.52 139.02 C 63.63 137.80 63.85 136.67 64.00 135.50 C 64.15 134.33 64.54 133.08 64.44 132.01 C 64.35 130.94 64.16 129.67 63.42 129.08 C 62.67 128.50 61.23 128.61 59.99 128.51 C 58.76 128.41 57.33 128.50 56.00 128.50 C 54.67 128.50 53.33 128.50 52.00 128.50 C 50.67 128.50 49.33 128.50 48.00 128.50 C 46.67 128.50 45.33 128.50 44.00 128.50 C 42.67 128.50 41.33 128.50 40.00 128.50 C 38.67 128.50 37.33 128.50 36.00 128.50 C 34.67 128.50 33.33 128.50 32.00 128.50 C 30.67 128.50 29.32 128.51 28.00 128.50 C 26.68 128.49 25.20 128.63 24.08 128.42 C 22.96 128.21 21.81 127.92 21.28 127.24 C 20.74 126.55 20.76 125.28 20.86 124.31 C 20.97 123.35 21.61 122.44 21.93 121.43 C 22.26 120.43 22.49 119.33 22.80 118.30 C 23.10 117.26 23.44 116.28 23.74 115.24 C 24.04 114.21 24.32 113.15 24.59 112.09 C 24.87 111.04 25.14 109.97 25.41 108.91 C 25.67 107.84 25.98 106.81 26.19 105.69 C 26.39 104.56 26.47 103.30 26.66 102.16 C 26.85 101.02 27.18 100.02 27.33 98.83 C 27.49 97.65 27.43 96.26 27.57 95.07 C 27.71 93.88 28.03 92.86 28.19 91.69 C 28.34 90.51 28.44 89.27 28.49 87.99 C 28.55 86.71 28.50 85.33 28.50 84.00 C 28.50 82.67 28.50 81.33 28.50 80.00 C 28.50 78.67 28.53 77.31 28.50 76.00 C 28.47 74.70 28.47 73.36 28.33 72.17 C 28.19 70.97 27.83 70.00 27.66 68.84 C 27.50 67.67 27.51 66.33 27.34 65.16 C 27.16 64.00 26.86 62.97 26.64 61.86 C 26.42 60.75 26.23 59.60 25.99 58.51 C 25.76 57.41 25.47 56.36 25.21 55.29 C 24.94 54.22 24.69 53.14 24.40 52.10 C 24.12 51.05 23.82 50.02 23.50 49.00 C 23.18 47.99 22.86 46.98 22.49 46.01 C 22.13 45.03 21.74 44.10 21.33 43.17 C 20.92 42.25 20.44 41.39 20.05 40.45 C 19.65 39.51 19.35 38.48 18.95 37.55 C 18.55 36.61 18.12 35.71 17.65 34.85 C 17.17 33.99 16.59 33.24 16.10 32.40 C 15.61 31.56 15.02 30.69 14.68 29.83 C 14.35 28.97 13.87 27.91 14.09 27.25 C 14.31 26.59 15.24 25.97 16.03 25.87 C 16.82 25.77 17.92 26.32 18.83 26.67 C 19.74 27.03 20.63 27.53 21.49 28.01 C 22.36 28.48 23.17 29.00 24.00 29.50 C 24.83 30.00 25.67 30.50 26.50 31.00 C 27.33 31.50 28.18 31.99 29.00 32.50 C 29.82 33.02 30.61 33.56 31.41 34.09 C 32.21 34.63 33.02 35.14 33.80 35.70 C 34.57 36.26 35.28 36.88 36.05 37.45 C 36.81 38.02 37.64 38.52 38.39 39.11 C 39.13 39.71 39.81 40.35 40.50 41.00 C 41.18 41.65 41.83 42.33 42.50 43.00 C 43.17 43.67 43.83 44.33 44.50 45.00 C 45.17 45.67 45.84 46.32 46.50 47.00 C 47.16 47.68 47.85 48.32 48.45 49.05 C 49.05 49.79 49.56 50.61 50.09 51.41 C 50.63 52.21 51.19 53.01 51.65 53.85 C 52.10 54.69 52.76 55.79 52.83 56.46 C 52.90 57.14 52.61 57.81 52.04 57.92 C 51.48 58.02 50.39 57.26 49.43 57.07 C 48.47 56.88 46.99 56.52 46.27 56.77 C 45.55 57.02 45.19 57.77 45.11 58.60 C 45.03 59.42 45.57 60.64 45.79 61.71 C 46.01 62.79 46.25 63.92 46.45 65.05 C 46.65 66.18 46.83 67.34 47.00 68.50 C 47.17 69.66 47.37 70.80 47.48 72.02 C 47.59 73.25 47.52 74.64 47.67 75.83 C 47.81 77.02 48.20 77.97 48.33 79.17 C 48.47 80.36 48.47 81.70 48.50 83.00 C 48.53 84.31 48.55 85.71 48.49 86.99 C 48.44 88.27 48.34 89.51 48.19 90.69 C 48.03 91.87 47.70 92.86 47.57 94.07 C 47.45 95.28 47.56 96.72 47.43 97.93 C 47.30 99.13 47.01 100.19 46.81 101.31 C 46.61 102.43 46.25 103.71 46.22 104.66 C 46.20 105.61 46.03 106.51 46.66 106.99 C 47.29 107.46 48.78 107.41 50.01 107.49 C 51.23 107.58 52.67 107.50 54.00 107.50 C 55.33 107.50 56.67 107.50 58.00 107.50 C 59.33 107.50 60.71 107.54 62.00 107.50 C 63.29 107.45 64.83 107.66 65.73 107.23 C 66.63 106.80 67.07 105.91 67.40 104.90 C 67.72 103.89 67.51 102.34 67.67 101.17 C 67.82 99.99 68.19 99.03 68.33 97.83 C 68.47 96.64 68.43 95.26 68.51 94.01 C 68.59 92.75 68.66 91.49 68.81 90.31 C 68.97 89.14 69.30 88.14 69.43 86.93 C 69.55 85.72 69.45 84.28 69.57 83.07 C 69.70 81.86 70.03 80.86 70.19 79.69 C 70.34 78.51 70.40 77.23 70.50 76.00 C 70.60 74.77 70.66 73.49 70.81 72.31 C 70.97 71.14 71.30 70.14 71.43 68.93 C 71.55 67.72 71.45 66.28 71.57 65.07 C 71.70 63.86 72.03 62.86 72.19 61.69 C 72.34 60.51 72.40 59.23 72.50 58.00 C 72.60 56.77 72.66 55.49 72.81 54.31 C 72.97 53.14 73.30 52.14 73.43 50.93 C 73.55 49.72 73.45 48.28 73.57 47.07 C 73.70 45.86 74.03 44.86 74.19 43.69 C 74.34 42.51 74.40 41.23 74.50 40.00 C 74.60 38.77 74.66 37.49 74.81 36.31 C 74.97 35.14 75.31 34.14 75.43 32.93 C 75.55 31.71 75.43 30.26 75.52 29.02 C 75.62 27.79 75.84 26.67 76.00 25.50 C 76.16 24.33 76.36 23.20 76.48 21.98 C 76.59 20.76 76.48 19.22 76.67 18.18 C 76.87 17.13 77.35 15.87 77.65 15.69 C 77.94 15.51 78.23 16.31 78.45 17.11 C 78.68 17.91 78.83 19.35 79.00 20.50 C 79.17 21.65 79.38 22.79 79.48 24.02 C 79.57 25.26 79.45 26.71 79.57 27.93 C 79.69 29.14 80.03 30.14 80.19 31.31 C 80.34 32.49 80.40 33.77 80.50 35.00 C 80.60 36.23 80.66 37.51 80.81 38.69 C 80.97 39.86 81.30 40.86 81.43 42.07 C 81.55 43.28 81.45 44.72 81.57 45.93 C 81.70 47.14 82.03 48.14 82.19 49.31 C 82.34 50.49 82.40 51.77 82.50 53.00 C 82.60 54.23 82.66 55.51 82.81 56.69 C 82.97 57.86 83.30 58.86 83.43 60.07 C 83.55 61.28 83.45 62.72 83.57 63.93 C 83.70 65.14 84.03 66.14 84.19 67.31 C 84.34 68.49 84.40 69.77 84.50 71.00 C 84.60 72.23 84.66 73.51 84.81 74.69 C 84.97 75.86 85.30 76.86 85.43 78.07 C 85.55 79.28 85.45 80.72 85.57 81.93 C 85.70 83.14 86.03 84.14 86.19 85.31 C 86.34 86.49 86.41 87.75 86.49 89.01 C 86.57 90.26 86.53 91.64 86.67 92.83 C 86.81 94.03 87.19 94.98 87.33 96.17 C 87.48 97.36 87.41 98.75 87.52 99.98 C 87.63 101.20 87.84 102.33 88.00 103.50 C 88.16 104.67 88.37 105.80 88.48 107.02 C 88.59 108.25 88.52 109.65 88.67 110.83 C 88.81 112.02 89.14 113.21 89.36 114.13 C 89.58 115.04 89.81 116.36 90.00 116.33 C 90.19 116.31 90.33 114.95 90.50 113.98 C 90.67 113.02 90.69 111.52 91.03 110.53 C 91.38 109.54 91.73 108.56 92.56 108.06 C 93.39 107.56 94.77 107.60 96.01 107.51 C 97.25 107.41 98.67 107.50 100.00 107.50 C 101.33 107.50 102.71 107.54 104.00 107.50 C 105.29 107.45 106.84 107.65 107.73 107.23 C 108.62 106.81 109.14 105.89 109.32 104.97 C 109.50 104.04 108.98 102.82 108.81 101.69 C 108.65 100.55 108.53 99.30 108.34 98.16 C 108.15 97.02 107.81 96.03 107.67 94.83 C 107.53 93.64 107.53 92.30 107.50 91.00 C 107.47 89.69 107.50 88.33 107.50 87.00 C 107.50 85.67 107.50 84.33 107.50 83.00 C 107.50 81.67 107.49 80.32 107.50 79.00 C 107.51 77.68 107.46 76.29 107.57 75.07 C 107.69 73.85 108.02 72.85 108.19 71.69 C 108.35 70.52 108.40 69.23 108.57 68.07 C 108.73 66.90 108.98 65.82 109.19 64.69 C 109.40 63.57 109.57 62.38 109.81 61.31 C 110.06 60.25 110.58 59.15 110.66 58.32 C 110.75 57.50 110.77 56.66 110.33 56.37 C 109.88 56.07 108.86 56.34 107.98 56.53 C 107.09 56.71 105.86 57.33 105.03 57.47 C 104.20 57.60 103.26 57.75 102.99 57.32 C 102.72 56.89 103.06 55.69 103.38 54.87 C 103.70 54.05 104.38 53.21 104.91 52.41 C 105.43 51.60 105.98 50.81 106.55 50.05 C 107.11 49.28 107.72 48.55 108.30 47.80 C 108.88 47.04 109.40 46.23 110.02 45.52 C 110.64 44.80 111.31 44.14 112.01 43.51 C 112.70 42.87 113.45 42.29 114.20 41.70 C 114.95 41.11 115.75 40.58 116.48 39.98 C 117.22 39.38 117.87 38.70 118.61 38.11 C 119.36 37.53 120.19 37.02 120.95 36.45 C 121.72 35.88 122.43 35.26 123.20 34.70 C 123.98 34.14 124.78 33.61 125.60 33.10 C 126.42 32.59 127.32 32.15 128.15 31.65 C 128.98 31.15 129.76 30.60 130.60 30.10 C 131.44 29.60 132.30 29.13 133.17 28.67 C 134.04 28.21 134.94 27.76 135.83 27.33 C 136.73 26.91 137.66 26.28 138.55 26.10 C 139.44 25.91 140.68 25.87 141.18 26.22 C 141.68 26.58 141.70 27.45 141.56 28.22 C 141.42 28.99 140.78 29.97 140.33 30.83 C 139.89 31.70 139.39 32.56 138.90 33.40 C 138.41 34.24 137.81 34.98 137.37 35.87 C 136.93 36.76 136.63 37.80 136.23 38.73 C 135.84 39.67 135.41 40.58 135.00 41.50 C 134.59 42.42 134.14 43.31 133.77 44.27 C 133.39 45.23 133.09 46.25 132.75 47.25 C 132.41 48.25 132.07 49.24 131.75 50.25 C 131.42 51.26 131.09 52.25 130.80 53.30 C 130.50 54.34 130.26 55.43 130.00 56.50 C 129.74 57.57 129.45 58.62 129.21 59.71 C 128.97 60.80 128.75 61.92 128.55 63.05 C 128.35 64.18 128.17 65.34 128.00 66.50 C 127.83 67.66 127.61 68.77 127.52 70.02 C 127.44 71.27 127.53 72.70 127.50 74.00 C 127.47 75.30 127.46 76.65 127.33 77.83 C 127.21 79.02 126.76 80.01 126.74 81.09 C 126.71 82.17 127.06 83.16 127.19 84.32 C 127.31 85.47 127.44 86.73 127.49 88.01 C 127.55 89.29 127.45 90.71 127.51 91.99 C 127.56 93.27 127.66 94.51 127.81 95.69 C 127.97 96.86 128.27 97.90 128.43 99.07 C 128.60 100.23 128.64 101.53 128.81 102.69 C 128.99 103.84 129.27 104.90 129.50 106.00 C 129.73 107.10 129.96 108.21 130.21 109.29 C 130.46 110.37 130.74 111.43 131.00 112.50 C 131.26 113.57 131.50 114.66 131.80 115.70 C 132.09 116.75 132.42 117.74 132.75 118.75 C 133.07 119.76 133.43 120.76 133.75 121.75 C 134.07 122.74 134.55 123.79 134.67 124.68 C 134.79 125.58 134.93 126.50 134.47 127.12 C 134.01 127.74 132.98 128.17 131.90 128.40 C 130.82 128.63 129.32 128.48 128.00 128.50 C 126.68 128.52 125.33 128.50 124.00 128.50 C 122.67 128.50 121.33 128.50 120.00 128.50 C 118.67 128.50 117.33 128.50 116.00 128.50 C 114.67 128.50 113.33 128.50 112.00 128.50 C 110.67 128.50 109.33 128.50 108.00 128.50 C 106.67 128.50 105.33 128.50 104.00 128.50 C 102.67 128.50 101.33 128.50 100.00 128.50 C 98.67 128.50 97.29 128.46 96.00 128.50 C 94.72 128.54 93.11 128.40 92.29 128.75 C 91.48 129.10 91.24 129.72 91.10 130.60 C 90.97 131.48 91.38 132.82 91.48 134.02 C 91.57 135.23 91.52 136.64 91.67 137.83 C 91.81 139.02 92.19 139.97 92.33 141.17 C 92.47 142.36 92.43 143.75 92.51 144.99 C 92.58 146.24 92.75 147.61 92.79 148.66 C 92.83 149.71 92.99 150.69 92.76 151.30 C 92.53 151.91 92.19 152.10 91.40 152.30 Z" fill="#9DB3C7"/>
</svg>